<svg width="596" height="153" viewBox="0 0 596 153" fill="none" xmlns="http://www.w3.org/2000/svg">
<path d="M98.7157 115.195C97.2437 115.195 95.8037 115.131 94.3957 115.003C93.0517 114.875 91.6437 114.683 90.1717 114.427C88.9557 114.235 87.9637 113.691 87.1957 112.795C86.4277 111.835 86.1077 110.747 86.2357 109.531C86.2997 107.419 86.3637 104.763 86.4277 101.563C86.5557 98.2993 86.6837 94.7473 86.8117 90.9073C86.9397 87.0673 87.0357 83.0993 87.0997 79.0033C87.2277 74.8433 87.3237 70.8433 87.3877 67.0033C87.4517 63.0993 87.5157 59.4833 87.5797 56.1553C87.6437 52.8273 87.7077 50.0753 87.7717 47.8993C87.8357 46.6193 88.3157 45.5313 89.2117 44.6353C90.1717 43.6753 91.2917 43.1953 92.5717 43.1953H92.6677C93.8197 43.1953 94.8117 43.5473 95.6437 44.2513C96.4757 44.9553 97.0197 45.8513 97.2757 46.9393C102.652 45.0833 107.324 44.0593 111.292 43.8673C117.18 43.4833 121.756 44.7633 125.02 47.7073C127.068 49.5633 128.38 51.8673 128.956 54.6193C129.532 57.3073 129.276 60.2833 128.188 63.5473C127.356 66.2993 125.884 69.1153 123.772 71.9953C123.132 72.8913 122.428 73.7553 121.66 74.5873C120.956 75.3553 120.188 76.1553 119.356 76.9873C122.812 77.4993 125.5 78.3953 127.42 79.6753C129.404 80.8913 130.908 82.2033 131.932 83.6113C133.596 85.9793 134.332 88.6993 134.14 91.7713C133.948 94.3953 133.02 97.0193 131.356 99.6433C129.756 102.203 127.58 104.539 124.828 106.651C123.484 107.739 122.012 108.731 120.412 109.627C118.876 110.523 117.212 111.323 115.42 112.027C112.796 113.115 110.076 113.915 107.26 114.427C104.444 114.939 101.596 115.195 98.7157 115.195ZM95.9317 105.499C99.3877 105.755 102.46 105.595 105.148 105.019C107.836 104.443 110.076 103.803 111.868 103.099C114.364 102.075 116.604 100.827 118.588 99.3553C120.636 97.8193 122.204 96.1873 123.292 94.4593C123.612 93.9473 123.964 93.1793 124.348 92.1553C124.796 91.0673 124.732 90.0753 124.156 89.1793C124.028 88.9873 123.804 88.7633 123.484 88.5073C123.164 88.2513 122.716 87.9953 122.14 87.7393C121.564 87.4193 120.796 87.1313 119.836 86.8753C118.94 86.6193 117.82 86.4273 116.476 86.2993C112.444 85.7873 107.484 86.0753 101.596 87.1633C100.764 87.4193 99.9317 87.6753 99.0997 87.9313C98.2677 88.1233 97.4037 88.2833 96.5077 88.4113L95.9317 105.499ZM97.2757 57.2113L96.6997 78.3313C97.2117 78.2033 97.6597 78.1073 98.0437 78.0433C98.4917 77.9793 98.9397 77.9153 99.3877 77.8513C101.82 77.0833 103.932 76.1553 105.724 75.0673C107.58 73.9793 109.148 72.9553 110.428 71.9953C112.54 70.3313 114.332 68.5073 115.804 66.5233C117.34 64.5393 118.428 62.5553 119.068 60.5713C119.132 60.2513 119.228 59.8673 119.356 59.4193C119.484 58.9073 119.548 58.3953 119.548 57.8833C119.612 57.3073 119.548 56.7633 119.356 56.2513C119.228 55.6753 118.972 55.1953 118.588 54.8113C117.5 53.7873 115.196 53.3393 111.676 53.4673C108.22 53.5313 103.42 54.7793 97.2757 57.2113ZM158.197 115.099C153.717 115.099 150.005 113.435 147.061 110.107C143.221 105.755 140.917 98.3953 140.149 88.0273C139.765 82.8433 139.733 76.9233 140.053 70.2673C140.373 63.6113 141.077 55.9633 142.165 47.3233C142.293 46.0433 142.869 44.9873 143.893 44.1553C144.981 43.3233 146.165 42.9713 147.445 43.0993C148.789 43.2913 149.845 43.9313 150.613 45.0193C151.445 46.0433 151.797 47.1953 151.669 48.4753C150.645 56.6673 149.973 63.9953 149.653 70.4593C149.397 76.9233 149.429 82.5553 149.749 87.3553C149.941 89.9153 150.197 92.1233 150.517 93.9793C150.901 95.8353 151.285 97.4033 151.669 98.6833C152.117 99.9633 152.565 101.019 153.013 101.851C153.461 102.683 153.877 103.323 154.261 103.771C155.221 104.923 156.533 105.499 158.197 105.499C160.245 105.499 162.357 104.507 164.533 102.523C167.157 100.027 169.525 96.4113 171.637 91.6753C174.069 86.2353 175.989 79.7713 177.397 72.2833C178.805 64.7313 179.637 56.5713 179.893 47.8033C179.957 46.4593 180.469 45.3393 181.429 44.4433C182.389 43.5473 183.509 43.0993 184.789 43.0993C186.133 43.1633 187.253 43.6753 188.149 44.6353C189.045 45.5953 189.493 46.7153 189.493 47.9953L188.917 71.8993C188.725 78.2353 188.533 84.4753 188.341 90.6193C188.213 96.7633 188.117 103.355 188.053 110.395C188.053 111.675 187.573 112.795 186.613 113.755C185.653 114.651 184.533 115.099 183.253 115.099C181.909 115.099 180.757 114.619 179.797 113.659C178.901 112.699 178.453 111.579 178.453 110.299C178.453 108.379 178.453 106.523 178.453 104.731C178.517 102.875 178.581 101.051 178.645 99.2593C175.893 104.443 172.757 108.379 169.237 111.067C165.781 113.755 162.101 115.099 158.197 115.099ZM212.23 115.099C211.462 115.099 210.79 114.939 210.214 114.619C208.998 114.043 208.166 113.147 207.718 111.931C207.27 110.651 207.334 109.403 207.91 108.187C207.91 108.187 208.102 107.771 208.486 106.939C208.934 106.043 209.51 104.859 210.214 103.387C210.918 101.915 211.718 100.187 212.614 98.2033C213.574 96.2193 214.598 94.0433 215.686 91.6753C214.214 89.5633 212.71 87.0993 211.174 84.2833C209.638 81.4033 208.134 78.4593 206.662 75.4513C205.254 72.3793 203.878 69.3713 202.534 66.4273C201.254 63.4193 200.102 60.7313 199.078 58.3633C198.118 55.9313 197.318 53.9473 196.678 52.4113C196.102 50.8113 195.782 49.8833 195.718 49.6273C195.206 48.3473 195.206 47.1313 195.718 45.9793C196.23 44.7633 197.126 43.9313 198.406 43.4833C199.686 42.9713 200.902 42.9713 202.054 43.4833C203.27 43.9953 204.134 44.8913 204.646 46.1713C204.646 46.2353 204.87 46.8433 205.318 47.9953C205.766 49.0833 206.374 50.5553 207.142 52.4113C207.91 54.2673 208.806 56.4113 209.83 58.8433C210.854 61.2113 211.942 63.7073 213.094 66.3313C214.246 68.8913 215.462 71.4513 216.742 74.0113C218.022 76.5713 219.27 78.9393 220.486 81.1153C221.894 77.9153 223.302 74.6833 224.71 71.4193C226.118 68.1553 227.398 65.0193 228.55 62.0113C229.766 59.0033 230.822 56.1873 231.718 53.5633C232.678 50.9393 233.414 48.6993 233.926 46.8433C234.246 45.5633 234.95 44.6033 236.038 43.9633C237.19 43.2593 238.406 43.0673 239.686 43.3873C240.966 43.7073 241.958 44.4433 242.662 45.5953C243.366 46.7473 243.558 47.9633 243.238 49.2433C242.534 52.0593 241.414 55.5153 239.878 59.6113C238.342 63.7073 236.614 68.0593 234.694 72.6673C232.774 77.2113 230.758 81.7873 228.646 86.3953C226.598 91.0033 224.71 95.1953 222.982 98.9713C221.254 102.683 219.782 105.787 218.566 108.283C217.35 110.715 216.678 112.091 216.55 112.411C216.166 113.307 215.558 113.979 214.726 114.427C213.958 114.875 213.126 115.099 212.23 115.099ZM311.983 115.099C308.655 115.099 305.551 114.107 302.671 112.123C297.231 108.347 292.943 100.859 289.807 89.6593C289.807 92.2833 289.775 94.7793 289.711 97.1473C289.711 99.4513 289.711 101.499 289.711 103.291C289.711 105.083 289.711 106.587 289.711 107.803C289.711 108.955 289.711 109.659 289.711 109.915C289.711 111.259 289.231 112.411 288.271 113.371C287.311 114.267 286.191 114.715 284.911 114.715C283.567 114.715 282.415 114.267 281.455 113.371C280.559 112.411 280.111 111.259 280.111 109.915C280.111 109.467 280.111 108.219 280.111 106.171C280.111 104.123 280.111 101.595 280.111 98.5873C280.175 95.5153 280.207 92.1233 280.207 88.4113C280.271 84.6993 280.335 80.9233 280.399 77.0833C280.527 72.7313 280.655 68.8593 280.783 65.4673C280.911 62.0753 281.039 59.1633 281.167 56.7313C281.295 55.1953 281.391 53.8833 281.455 52.7953C281.583 51.6433 281.711 50.6193 281.839 49.7233L282.415 47.1313C282.927 45.5313 283.663 44.5073 284.623 44.0593C285.583 43.5473 286.319 43.2273 286.831 43.0993C288.303 42.9713 289.519 43.3233 290.479 44.1553C291.375 44.8593 291.983 45.6913 292.303 46.6513C292.623 47.6113 292.879 48.7633 293.071 50.1073L293.839 56.7313C294.351 60.5713 294.927 64.9233 295.567 69.7873C296.207 74.5873 297.135 79.3873 298.351 84.1873C299.183 87.4513 300.015 90.2673 300.847 92.6353C301.743 94.9393 302.607 96.8913 303.439 98.4913C304.335 100.027 305.167 101.275 305.935 102.235C306.703 103.131 307.439 103.803 308.143 104.251C309.807 105.467 311.759 105.787 313.999 105.211C315.663 104.827 317.039 103.931 318.127 102.523C319.279 101.051 320.207 99.3233 320.911 97.3393C321.615 95.3553 322.127 93.2113 322.447 90.9073C322.767 88.5393 322.991 86.2353 323.119 83.9953C323.311 81.0513 323.343 78.0753 323.215 75.0673C323.087 71.9953 322.895 69.0833 322.639 66.3313C322.447 63.5153 322.191 60.9233 321.871 58.5553C321.551 56.1873 321.295 54.2033 321.103 52.6033C320.911 51.1313 320.751 50.0753 320.623 49.4353C320.559 48.7953 320.527 48.2833 320.527 47.8993C320.527 46.5553 321.007 45.4353 321.967 44.5393C322.927 43.5793 324.047 43.0993 325.327 43.0993C326.671 43.0993 327.791 43.5793 328.687 44.5393C329.647 45.4353 330.127 46.5233 330.127 47.8033L330.607 51.2593C330.863 52.9233 331.151 55.0033 331.471 57.4993C331.791 59.9313 332.047 62.6513 332.239 65.6593C332.495 68.6033 332.687 71.7073 332.815 74.9713C332.943 78.1713 332.911 81.3713 332.719 84.5713C332.335 91.9313 331.119 98.0113 329.071 102.811C327.791 105.819 326.159 108.283 324.175 110.203C321.999 112.379 319.343 113.851 316.207 114.619C315.503 114.747 314.799 114.875 314.095 115.003C313.391 115.067 312.687 115.099 311.983 115.099ZM364.785 115.195C364.209 115.195 363.793 115.163 363.537 115.099C359.633 114.907 356.017 113.787 352.689 111.739C349.617 109.755 347.057 107.195 345.009 104.059C343.153 101.179 341.713 97.9153 340.689 94.2673C339.665 90.6193 339.121 86.7473 339.057 82.6513C338.929 77.9793 339.441 73.5953 340.593 69.4993C341.169 67.2593 341.873 65.1153 342.705 63.0673C343.537 61.0193 344.529 59.0993 345.681 57.3073C348.177 53.4033 351.217 50.2353 354.801 47.8033C358.705 45.2433 363.089 43.7073 367.953 43.1953C369.233 43.0673 370.385 43.4513 371.409 44.3473C372.433 45.1793 373.009 46.2353 373.137 47.5153C373.265 48.8593 372.881 50.0433 371.985 51.0673C371.153 52.0913 370.097 52.6673 368.817 52.7953C365.425 53.1153 362.449 54.2033 359.889 56.0593C357.329 57.8513 355.217 60.1553 353.553 62.9713C351.889 65.7233 350.641 68.7953 349.809 72.1873C348.977 75.5793 348.593 79.0033 348.657 82.4593C348.721 85.2113 349.073 87.9633 349.713 90.7153C350.353 93.4033 351.281 95.8353 352.497 98.0113C353.777 100.123 355.377 101.883 357.297 103.291C359.217 104.699 361.489 105.467 364.113 105.595H364.689C366.865 105.595 368.849 105.019 370.641 103.867C372.497 102.651 374.129 101.083 375.537 99.1633C377.009 97.2433 378.225 95.0993 379.185 92.7313C380.209 90.2993 380.977 87.8673 381.489 85.4353C382.065 82.5553 382.289 79.7393 382.161 76.9873C382.097 74.2353 381.713 71.7073 381.009 69.4033C379.601 64.8593 377.169 62.0113 373.713 60.8593C372.433 60.4113 371.505 59.6113 370.929 58.4593C370.353 57.2433 370.321 55.9953 370.833 54.7153C371.281 53.4353 372.081 52.5073 373.233 51.9313C374.385 51.3553 375.601 51.2913 376.881 51.7393C380.337 53.0193 383.185 55.0033 385.425 57.6913C386.513 58.9073 387.441 60.2513 388.209 61.7233C388.977 63.1953 389.649 64.7953 390.225 66.5233C391.185 69.5953 391.697 72.9233 391.761 76.5073C391.889 80.0273 391.601 83.6433 390.897 87.3553C390.129 91.0673 388.977 94.5873 387.441 97.9153C385.969 101.243 384.177 104.123 382.065 106.555C379.569 109.435 376.881 111.579 374.001 112.987C370.929 114.459 367.857 115.195 364.785 115.195ZM470.142 47.8993C470.142 48.0273 470.142 48.8273 470.142 50.2993C470.142 51.7713 470.11 53.6913 470.046 56.0593C470.046 58.3633 469.95 61.0513 469.758 64.1233C469.63 67.1953 469.438 70.3953 469.182 73.7233C468.798 77.7553 468.318 81.4993 467.742 84.9553C467.23 88.3473 466.622 91.4833 465.918 94.3633C463.998 102.107 461.374 107.643 458.046 110.971C455.358 113.787 452.222 115.195 448.638 115.195C444.542 115.195 440.99 113.595 437.982 110.395C436.062 108.411 434.43 105.659 433.086 102.139C431.614 105.659 429.854 108.443 427.806 110.491C424.798 113.627 421.214 115.195 417.054 115.195C413.47 115.195 410.334 113.755 407.646 110.875C404.382 107.355 402.014 101.787 400.542 94.1713C399.326 88.3473 398.59 81.4353 398.334 73.4353C398.206 70.0433 398.142 66.8113 398.142 63.7393C398.142 60.6673 398.174 57.9793 398.238 55.6753C398.302 53.3073 398.366 51.4193 398.43 50.0113C398.558 48.5393 398.622 47.7393 398.622 47.6113C398.75 46.3313 399.294 45.2433 400.254 44.3473C401.278 43.4513 402.462 43.0673 403.806 43.1953C405.086 43.3233 406.174 43.8993 407.07 44.9233C407.966 45.8833 408.35 47.0033 408.222 48.2833C408.222 48.3473 408.158 49.0833 408.03 50.4913C407.966 51.8353 407.902 53.6593 407.838 55.9633C407.774 58.2033 407.742 60.8273 407.742 63.8353C407.742 66.7793 407.806 69.8833 407.934 73.1473C408.254 80.6993 408.926 87.0673 409.95 92.2513C410.718 95.9633 411.518 98.7473 412.35 100.603C413.182 102.395 413.95 103.643 414.654 104.347C415.166 104.859 415.614 105.211 415.998 105.403C416.382 105.531 416.734 105.595 417.054 105.595C417.502 105.595 418.046 105.499 418.686 105.307C419.39 105.115 420.158 104.603 420.99 103.771C422.718 101.979 424.222 99.0993 425.502 95.1313C426.782 91.1633 427.774 86.2993 428.478 80.5393C428.606 79.3233 428.702 78.1713 428.766 77.0833C428.894 75.9313 429.022 74.8113 429.15 73.7233C429.086 70.5233 429.118 67.8993 429.246 65.8513C429.374 63.8033 429.438 62.7153 429.438 62.5873L429.63 61.6273C429.95 60.6033 430.494 59.8033 431.262 59.2273H431.358C431.358 59.1633 431.39 59.1313 431.454 59.1313C431.454 59.0673 431.486 59.0353 431.55 59.0353C431.55 59.0353 431.582 59.0033 431.646 58.9393H431.742L431.838 58.8433H431.934C431.934 58.7793 431.966 58.7473 432.03 58.7473H432.126C432.126 58.6833 432.19 58.6513 432.318 58.6513C432.638 58.4593 432.99 58.3313 433.374 58.2673C433.822 58.2033 434.238 58.1713 434.622 58.1713H434.718C434.782 58.1713 434.814 58.2033 434.814 58.2673C434.814 58.2673 434.846 58.2673 434.91 58.2673H435.102C435.614 58.3953 435.998 58.5233 436.254 58.6513C436.382 58.6513 436.446 58.6833 436.446 58.7473H436.542L436.638 58.8433H436.734C437.886 59.5473 438.59 60.5073 438.846 61.7233C438.974 61.9793 439.038 62.3633 439.038 62.8753C439.038 63.0033 439.038 64.0913 439.038 66.1393C439.038 68.1873 438.942 70.8113 438.75 74.0113C438.75 75.0993 438.75 76.2193 438.75 77.3713C438.814 78.4593 438.878 79.6113 438.942 80.8273C439.198 84.6673 439.55 87.9313 439.998 90.6193C440.51 93.3073 441.054 95.5473 441.63 97.3393C442.206 99.1313 442.782 100.539 443.358 101.563C443.998 102.587 444.542 103.355 444.99 103.867C446.142 105.019 447.358 105.595 448.638 105.595C448.958 105.595 449.31 105.531 449.694 105.403C450.142 105.211 450.654 104.827 451.23 104.251C451.934 103.547 452.766 102.267 453.726 100.411C454.75 98.5553 455.71 95.7713 456.606 92.0593C457.31 89.4353 457.886 86.5553 458.334 83.4193C458.846 80.2193 459.262 76.6993 459.582 72.8593C459.838 69.5953 460.03 66.4913 460.158 63.5473C460.35 60.6033 460.446 58.0113 460.446 55.7713C460.51 53.4673 460.542 51.6433 460.542 50.2993C460.542 48.8913 460.542 48.1873 460.542 48.1873C460.478 46.8433 460.894 45.6913 461.79 44.7313C462.75 43.7713 463.87 43.2913 465.15 43.2913H465.342C466.622 43.2913 467.71 43.7393 468.606 44.6353C469.566 45.5313 470.078 46.6193 470.142 47.8993Z" fill="white"/>
<path d="M10.8216 13.4744C10.8216 35.3487 9.52403 57.4764 6.43012 79.1338C4.92867 89.6439 3.17194 101.016 3.17194 111.645C3.17194 115.987 3.24086 120.336 3.17194 124.677C3.10363 128.981 0.993249 134.132 2.6053 138.277C5.47704 145.661 18.105 143.459 23.8543 143.802C53.865 145.59 83.3022 151.168 113.454 151.168C151.676 151.168 189.56 147.685 227.703 146.351C258.064 145.29 289.037 148.385 319.286 145.36C386.147 138.674 453.235 133.319 520.514 133.319C538.918 133.319 557.118 132.707 575.478 131.973C580.671 131.765 596.46 132.801 593.752 124.677C590.835 115.927 591.088 107.247 588.935 98.3287C586.939 90.0561 583.638 80.8903 583.269 72.405C582.669 58.5997 580.531 43.4622 577.178 30.0487C575.385 22.8769 574.827 8.51451 565.42 7.17059C545.248 4.28891 525.602 2 505.002 2C461.607 2 418.084 4.84965 374.675 5.89565C333.127 6.8968 291.174 5.67002 249.731 9.08299C208.644 12.4666 167.756 12.1995 126.558 12.1995C107.827 12.1995 88.645 13.2756 70.0354 11.2079C54.5656 9.48902 37.5983 11.8331 22.5793 7.38307C19.1772 6.37503 7.08478 10.9686 9.54663 12.1995" stroke="white" stroke-width="3" stroke-linecap="round"/>
</svg>
