<svg width="91" height="43" viewBox="0 0 91 43" fill="none" xmlns="http://www.w3.org/2000/svg">
<path d="M14.0059 21.5367C37.5626 21.5367 61.2523 17.1875 84.6113 21.4346C88.2577 22.0976 89.1758 20.3696 85.6316 21.9448C81.1679 23.9286 77.0216 26.9234 72.3676 28.4747C63.2083 31.5278 53.5397 34.2799 44.3091 36.3311C38.6919 37.5794 34.391 41.9217 29.6166 37.1474C24.7109 32.2417 16.5607 26.8953 10.3328 23.7813C4.53294 20.8814 6.6338 32.2353 3.90487 37.1474C-0.109795 44.3738 13.142 34.3563 15.8425 32.556" stroke="white" stroke-width="5" stroke-linecap="round"/>
<path d="M81.9584 19.7001C73.8827 18.6906 64.078 15.0016 55.4304 13.2721C45.6402 11.3141 34.344 9.25406 25.0252 5.92591C20.6802 4.37413 14.2865 -0.0436413 14.0059 5.00764C13.6576 11.2765 8.49622 15.0881 8.49622 21.5366" stroke="white" stroke-width="5" stroke-linecap="round"/>
</svg>
