<svg width="79" height="62" viewBox="0 0 79 62" fill="none" xmlns="http://www.w3.org/2000/svg">
<path d="M3.68388 5.45963C15.3808 5.45963 27.0778 5.45963 38.7747 5.45963C49.2419 5.45963 59.6746 3.60188 70.0469 3.60188C71.1775 3.60188 75.2429 2.9498 75.9297 3.80829C76.9373 5.06774 71.525 13.6607 71.0273 15.2644C67.1648 27.7103 60.2732 38.2624 53.6367 49.3232C49.9231 55.5126 47.9379 59.3344 40.6325 59.3344C37.5258 59.3344 36.1423 56.6817 34.3368 54.174C30.2756 48.5334 25.7569 43.4916 22.2098 37.5058C18.2618 30.8437 11.1437 23.2751 9.25713 15.7289C8.51016 12.741 4.18175 10.1709 2.755 7.31738" stroke="white" stroke-width="5" stroke-linecap="round"/>
<path d="M41.7677 7.31738C41.7677 23.6562 42.6966 40.1184 42.6966 56.5478" stroke="white" stroke-width="5" stroke-linecap="round"/>
</svg>
